  0
SECTION
  2
HEADER
  9
$ACADVER
  1
AC1009
  9
$DWGCODEPAGE
  3
ansi_1252
  9
$INSBASE
 10
0.0
 20
0.0
 30
0.0
  9
$EXTMIN
 10
0.0
 20
0.0
 30
0.0
  9
$EXTMAX
 10
279.4
 20
215.9
 30
0.0
  9
$LIMMIN
 10
0.0
 20
0.0
  9
$LIMMAX
 10
279.4
 20
215.9
  9
$ORTHOMODE
 70
     0
  9
$REGENMODE
 70
     1
  9
$FILLMODE
 70
     1
  9
$QTEXTMODE
 70
     0
  9
$MIRRTEXT
 70
     1
  9
$DRAGMODE
 70
     2
  9
$LTSCALE
 40
1.0
  9
$OSMODE
 70
    37
  9
$ATTMODE
 70
     1
  9
$TEXTSIZE
 40
3.5
  9
$TRACEWID
 40
1.0
  9
$TEXTSTYLE
  7
STANDARD
  9
$CLAYER
  8
0
  9
$CELTYPE
  6
BYLAYER
  9
$CECOLOR
 62
   256
  9
$DIMSCALE
 40
1.0
  9
$DIMASZ
 40
3.302
  9
$DIMEXO
 40
1.0
  9
$DIMDLI
 40
3.75
  9
$DIMRND
 40
0.0
  9
$DIMDLE
 40
0.0
  9
$DIMEXE
 40
1.0
  9
$DIMTP
 40
0.0
  9
$DIMTM
 40
0.0
  9
$DIMTXT
 40
3.5
  9
$DIMCEN
 40
2.5
  9
$DIMTSZ
 40
0.0
  9
$DIMTOL
 70
     0
  9
$DIMLIM
 70
     0
  9
$DIMTIH
 70
     1
  9
$DIMTOH
 70
     1
  9
$DIMSE1
 70
     0
  9
$DIMSE2
 70
     0
  9
$DIMTAD
 70
     1
  9
$DIMZIN
 70
     0
  9
$DIMBLK
  1

  9
$DIMASO
 70
     1
  9
$DIMSHO
 70
     1
  9
$DIMPOST
  1

  9
$DIMAPOST
  1

  9
$DIMALT
 70
     0
  9
$DIMALTD
 70
     3
  9
$DIMALTF
 40
0.0393700787
  9
$DIMLFAC
 40
1.0
  9
$DIMTOFL
 70
     1
  9
$DIMTVP
 40
0.0
  9
$DIMTIX
 70
     0
  9
$DIMSOXD
 70
     0
  9
$DIMSAH
 70
     0
  9
$DIMBLK1
  1

  9
$DIMBLK2
  1

  9
$DIMSTYLE
  2
ISO-25
  9
$DIMCLRD
 70
     0
  9
$DIMCLRE
 70
     0
  9
$DIMCLRT
 70
     0
  9
$DIMTFAC
 40
1.0
  9
$DIMGAP
 40
1.524
  9
$LUNITS
 70
     2
  9
$LUPREC
 70
     2
  9
$SKETCHINC
 40
1.0
  9
$FILLETRAD
 40
10.0
  9
$AUNITS
 70
     0
  9
$AUPREC
 70
     2
  9
$MENU
  1
.
  9
$ELEVATION
 40
0.0
  9
$PELEVATION
 40
0.0
  9
$THICKNESS
 40
0.0
  9
$LIMCHECK
 70
     0
  9
$CHAMFERA
 40
10.0
  9
$CHAMFERB
 40
10.0
  9
$SKPOLY
 70
     0
  9
$TDCREATE
 40
2456576.392031725
  9
$TDUPDATE
 40
2456576.392032454
  9
$TDINDWG
 40
0.0000000116
  9
$TDUSRTIMER
 40
0.0000000116
  9
$USRTIMER
 70
     1
  9
$ANGBASE
 50
0.0
  9
$ANGDIR
 70
     0
  9
$PDMODE
 70
     0
  9
$PDSIZE
 40
-1.0
  9
$PLINEWID
 40
0.0
  9
$COORDS
 70
     1
  9
$SPLFRAME
 70
     0
  9
$SPLINETYPE
 70
     6
  9
$SPLINESEGS
 70
     8
  9
$ATTDIA
 70
     0
  9
$ATTREQ
 70
     1
  9
$HANDLING
 70
     1
  9
$HANDSEED
  5
73
  9
$SURFTAB1
 70
     6
  9
$SURFTAB2
 70
     6
  9
$SURFTYPE
 70
     6
  9
$SURFU
 70
     6
  9
$SURFV
 70
     6
  9
$UCSNAME
  2

  9
$UCSORG
 10
0.0
 20
0.0
 30
0.0
  9
$UCSXDIR
 10
1.0
 20
0.0
 30
0.0
  9
$UCSYDIR
 10
0.0
 20
1.0
 30
0.0
  9
$PUCSNAME
  2

  9
$PUCSORG
 10
0.0
 20
0.0
 30
0.0
  9
$PUCSXDIR
 10
1.0
 20
0.0
 30
0.0
  9
$PUCSYDIR
 10
0.0
 20
1.0
 30
0.0
  9
$USERI1
 70
     0
  9
$USERI2
 70
     0
  9
$USERI3
 70
     0
  9
$USERI4
 70
     0
  9
$USERI5
 70
     0
  9
$USERR1
 40
0.0
  9
$USERR2
 40
0.0
  9
$USERR3
 40
0.0
  9
$USERR4
 40
0.0
  9
$USERR5
 40
0.0
  9
$WORLDVIEW
 70
     1
  9
$SHADEDGE
 70
     3
  9
$SHADEDIF
 70
    70
  9
$TILEMODE
 70
     1
  9
$MAXACTVP
 70
    64
  9
$PLIMCHECK
 70
     0
  9
$PEXTMIN
 10
1.0000000000E+20
 20
1.0000000000E+20
 30
1.0000000000E+20
  9
$PEXTMAX
 10
-1.0000000000E+20
 20
-1.0000000000E+20
 30
-1.0000000000E+20
  9
$PLIMMIN
 10
0.0
 20
0.0
  9
$PLIMMAX
 10
420.0
 20
297.0
  9
$UNITMODE
 70
     0
  9
$VISRETAIN
 70
     1
  9
$PLINEGEN
 70
     0
  9
$PSLTSCALE
 70
     1
  0
ENDSEC
  0
SECTION
  2
TABLES
  0
TABLE
  2
VPORT
 70
     1
  0
VPORT
  2
*ACTIVE
 70
     0
 10
0.0
 20
0.0
 11
1.0
 21
1.0
 12
139.7
 22
107.95
 13
0.0
 23
0.0
 14
10.0
 24
10.0
 15
10.0
 25
10.0
 16
0.0
 26
0.0
 36
1.0
 17
0.0
 27
0.0
 37
0.0
 40
215.9
 41
1.2941176471
 42
50.0
 43
0.0
 44
0.0
 50
0.0
 51
0.0
 71
     0
 72
  2000
 73
     1
 74
     3
 75
     0
 76
     0
 77
     0
 78
     0
  0
ENDTAB
  0
TABLE
  2
LTYPE
 70
     6
  0
LTYPE
  2
CONTINUOUS
 70
     0
  3
Solid line
 72
    65
 73
     0
 40
0.0
  0
LTYPE
  2
HIDDEN
 70
     0
  3
Hidden __ __ __ __ __ __ __ __ __ __ __ __ __ __
 72
    65
 73
     2
 40
1.905
 49
1.27
 49
-0.635
  0
LTYPE
  2
PHANTOM
 70
     0
  3
Phantom ______  __  __  ______  __  __  ______
 72
    65
 73
     6
 40
12.7
 49
6.35
 49
-1.27
 49
1.27
 49
-1.27
 49
1.27
 49
-1.27
  0
LTYPE
  2
CENTER
 70
     0
  3
Center ____ _ ____ _ ____ _ ____ _ ____ _ ____
 72
    65
 73
     4
 40
10.16
 49
6.35
 49
-1.27
 49
1.27
 49
-1.27
  0
LTYPE
  2
CENTERX2
 70
     0
  3
Center (2x) ________  __  ________  __  _____
 72
    65
 73
     4
 40
20.32
 49
12.7
 49
-2.54
 49
2.54
 49
-2.54
  0
LTYPE
  2
DOT2
 70
     0
  3
Dot (.5x) ........................................
 72
    65
 73
     2
 40
0.635
 49
0.0
 49
-0.635
  0
ENDTAB
  0
TABLE
  2
LAYER
 70
     2
  0
LAYER
  2
0
 70
     0
 62
     7
  6
CONTINUOUS
  0
LAYER
  2
FORMAT
 70
     0
 62
     7
  6
CONTINUOUS
  0
ENDTAB
  0
TABLE
  2
STYLE
 70
     1
  0
STYLE
  2
STANDARD
 70
     0
 40
0.0
 41
1.0
 50
0.0
 71
     0
 42
3.5
  3
txt
  4

  0
ENDTAB
  0
TABLE
  2
VIEW
 70
     0
  0
ENDTAB
  0
TABLE
  2
UCS
 70
     0
  0
ENDTAB
  0
TABLE
  2
APPID
 70
     1
  0
APPID
  2
ACAD
 70
     0
  0
ENDTAB
  0
TABLE
  2
DIMSTYLE
 70
     1
  0
DIMSTYLE
  2
ISO-25
 70
     0
  3

  4

  5

  6

  7

 40
1.0
 41
2.5
 42
0.625
 43
3.75
 44
1.25
 45
0.0
 46
0.0
 47
0.0
 48
0.0
140
2.5
141
2.5
142
0.0
143
0.0393700787
144
1.0
145
0.0
146
1.0
147
0.625
 71
     0
 72
     0
 73
     0
 74
     0
 75
     0
 76
     0
 77
     1
 78
     8
170
     0
171
     3
172
     1
173
     0
174
     0
175
     0
176
     0
177
     0
178
     0
  0
ENDTAB
  0
ENDSEC
  0
SECTION
  2
BLOCKS
  0
BLOCK
  8
0
  2
$MODEL_SPACE
 70
     0
 10
0.0
 20
0.0
 30
0.0
  3
$MODEL_SPACE
  1

  0
ENDBLK
  5
21
  8
0
  0
BLOCK
 67
     1
  8
0
  2
$PAPER_SPACE
 70
     0
 10
0.0
 20
0.0
 30
0.0
  3
$PAPER_SPACE
  1

  0
ENDBLK
  5
1D
 67
     1
  8
0
  0
ENDSEC
  0
SECTION
  2
ENTITIES
  0
LINE
  5
45
  8
0
  6
CONTINUOUS
 62
     7
 10
25.0087909731
 20
205.1658215757
 30
0.0
 11
30.8428679577
 21
210.2103709337
 31
0.0
  0
ARC
  5
46
  8
0
  6
CONTINUOUS
 62
     7
 10
17.7517465601
 20
200.5698008635
 30
0.0
 40
8.590000000000009
 50
8.5021389648
 51
32.346838211
  0
LINE
  5
47
  8
0
  6
CONTINUOUS
 62
     7
 10
31.1552316167
 20
201.8398008635
 30
0.0
 11
26.2473454206
 21
201.8398008635
 31
0.0
  0
LINE
  5
48
  8
0
  6
CONTINUOUS
 62
     7
 10
31.0934149472
 20
208.4261357423
 30
0.0
 11
31.1552316167
 21
201.8398008635
 31
0.0
  0
ARC
  5
49
  8
0
  6
CONTINUOUS
 62
     7
 10
27.4017465601
 20
208.8174508047
 30
0.0
 40
3.71235005875981
 50
353.9492693937
 51
22.0374469493
  0
LINE
  5
4A
  8
0
  6
CONTINUOUS
 62
     7
 10
16.4817465601
 20
212.4621807767
 30
0.0
 11
16.4817465601
 21
209.0653997241
 31
0.0
  0
ARC
  5
4B
  8
0
  6
CONTINUOUS
 62
     7
 10
17.7517465601
 20
200.5698008635
 30
0.0
 40
11.95999999999792
 50
96.095575777
 51
120.9293112508
  0
LINE
  5
4C
  8
0
  6
CONTINUOUS
 62
     7
 10
11.6045439442
 20
206.5698008635
 30
0.0
 11
11.6045439442
 21
210.829113706
 31
0.0
  0
ARC
  5
4D
  8
0
  6
CONTINUOUS
 62
     7
 10
17.7517465601
 20
200.5698008635
 30
0.0
 40
8.589999999999996
 50
98.5021389648
 51
135.6942895472
  0
CIRCLE
  5
4E
  8
0
  6
CONTINUOUS
 62
     7
 10
9.4500224221
 20
208.0728289756
 30
0.0
 40
1.000000000000053
  0
LINE
  5
4F
  8
0
  6
CONTINUOUS
 62
     7
 10
11.7017465601
 20
200.5698008635
 30
0.0
 11
11.7017465601
 21
197.5698008635
 31
0.0
  0
ARC
  5
50
  8
0
  6
CONTINUOUS
 62
     7
 10
8.7017465601
 20
197.5698008635
 30
0.0
 40
3.0
 50
270.0
 51
0.0
  0
LINE
  5
51
  8
0
  6
CONTINUOUS
 62
     7
 10
8.7017465601
 20
194.5698008635
 30
0.0
 11
1.0380826431
 21
194.5698008635
 31
0.0
  0
LINE
  5
52
  8
0
  6
CONTINUOUS
 62
     7
 10
1.0380826431
 20
194.5698008635
 30
0.0
 11
1.0380826431
 21
197.5698008635
 31
0.0
  0
LINE
  5
53
  8
0
  6
CONTINUOUS
 62
     7
 10
1.0380826431
 20
197.5698008635
 30
0.0
 11
7.0517465601
 21
197.5698008635
 31
0.0
  0
LINE
  5
54
  8
0
  6
CONTINUOUS
 62
     7
 10
7.0517465601
 20
197.5698008635
 30
0.0
 11
7.0517465601
 21
203.5698008635
 31
0.0
  0
LINE
  5
55
  8
0
  6
CONTINUOUS
 62
     7
 10
7.0517465601
 20
203.5698008635
 30
0.0
 11
1.033369183
 21
203.5698008635
 31
0.0
  0
LINE
  5
56
  8
0
  6
CONTINUOUS
 62
     7
 10
1.033369183
 20
203.5698008635
 30
0.0
 11
1.033369183
 21
206.5698008635
 31
0.0
  0
LINE
  5
57
  8
0
  6
CONTINUOUS
 62
     7
 10
1.033369183
 20
206.5698008635
 30
0.0
 11
7.199339367
 21
206.5698008635
 31
0.0
  0
LINE
  5
58
  8
0
  6
CONTINUOUS
 62
     7
 10
7.199339367
 20
206.5698008635
 30
0.0
 11
7.199339367
 21
210.4327171212
 31
0.0
  0
LINE
  5
59
  8
0
  6
CONTINUOUS
 62
     7
 10
7.199339367
 20
210.4327171212
 30
0.0
 11
7.4986982329
 21
210.8228491907
 31
0.0
  0
ARC
  5
5A
  8
0
  6
CONTINUOUS
 62
     7
 10
17.7517465601
 20
200.5698008635
 30
0.0
 40
14.4999999999979
 50
90.0
 51
135.0
  0
LINE
  5
5B
  8
0
  6
CONTINUOUS
 62
     7
 10
17.7517465601
 20
215.0698008635
 30
0.0
 11
27.4017465601
 21
215.0698008635
 31
0.0
  0
ARC
  5
5C
  8
0
  6
CONTINUOUS
 62
     7
 10
27.4017465601
 20
208.8174508047
 30
0.0
 40
6.252350058759816
 50
358.4290261635
 51
90.0
  0
LINE
  5
5D
  8
0
  6
CONTINUOUS
 62
     7
 10
33.6517465601
 20
208.6460411863
 30
0.0
 11
38.5324078089
 21
208.6460411863
 31
0.0
  0
LINE
  5
5E
  8
0
  6
CONTINUOUS
 62
     7
 10
38.5324078089
 20
208.6460411863
 30
0.0
 11
40.9933587028
 21
210.9042970976
 31
0.0
  0
ARC
  5
5F
  8
0
  6
CONTINUOUS
 62
     7
 10
42.3455835655
 20
209.4307001647
 30
0.0
 40
1.999999999999988
 50
317.6723263375
 51
132.5405965753
  0
LINE
  5
60
  8
0
  6
CONTINUOUS
 62
     7
 10
43.8241954575
 20
208.0839608162
 30
0.0
 11
40.2517465601
 21
204.1616981829
 31
0.0
  0
LINE
  5
61
  8
0
  6
CONTINUOUS
 62
     7
 10
40.2517465601
 20
204.1616981829
 30
0.0
 11
40.2517465601
 21
195.1515961403
 31
0.0
  0
LINE
  5
62
  8
0
  6
CONTINUOUS
 62
     7
 10
40.2517465601
 20
195.1515961403
 30
0.0
 11
33.7517465597
 21
195.1515545169
 31
0.0
  0
ARC
  5
63
  8
0
  6
CONTINUOUS
 62
     7
 10
27.1803181013
 20
195.1514904812
 30
0.0
 40
6.57142845876233
 50
272.8036287185
 51
0.0005583223
  0
LINE
  5
64
  8
0
  6
CONTINUOUS
 62
     7
 10
27.5017465601
 20
188.5879277493
 30
0.0
 11
26.8017465601
 21
188.5879277493
 31
0.0
  0
ARC
  5
65
  8
0
  6
CONTINUOUS
 62
     7
 10
26.8017465601
 20
191.5879277493
 30
0.0
 40
3.0
 50
180.0
 51
270.0
  0
LINE
  5
66
  8
0
  6
CONTINUOUS
 62
     7
 10
23.8017465601
 20
191.5879277493
 30
0.0
 11
23.8017465601
 21
200.5698008635
 31
0.0
  0
CIRCLE
  5
67
  8
0
  6
CONTINUOUS
 62
     7
 10
28.4517465601
 20
190.8992312967
 30
0.0
 40
1.000000000000174
  0
LINE
  5
68
  8
0
  6
CONTINUOUS
 62
     7
 10
19.0217465601
 20
212.5298008635
 30
0.0
 11
27.4017465601
 21
212.5298008635
 31
0.0
  0
LINE
  5
69
  8
0
  6
CONTINUOUS
 62
     7
 10
19.0217465601
 20
209.0653997241
 30
0.0
 11
19.0217465601
 21
212.5298008635
 31
0.0
  0
ARC
  5
6A
  8
0
  6
CONTINUOUS
 62
     7
 10
17.7517465601
 20
200.5698008635
 30
0.0
 40
8.589999999999996
 50
49.3511161405
 51
81.4978610352
  0
LINE
  5
6B
  8
0
  6
CONTINUOUS
 62
     7
 10
29.1413578094
 20
212.096977548
 30
0.0
 11
23.347459639
 21
207.0871695916
 31
0.0
  0
ARC
  5
6C
  8
0
  6
CONTINUOUS
 62
     7
 10
27.4017465601
 20
208.8174508047
 30
0.0
 40
3.712350058759831
 50
62.0564720884
 51
90.0
  0
LINE
  5
6D
  8
0
  6
CONTINUOUS
 62
     7
 10
31.1671513219
 20
199.2998008635
 30
0.0
 11
31.2173320571
 21
195.2232312466
 31
0.0
  0
LINE
  5
6E
  8
0
  6
CONTINUOUS
 62
     7
 10
26.3417465601
 20
199.2998008635
 30
0.0
 11
31.1671513219
 21
199.2998008635
 31
0.0
  0
LINE
  5
6F
  8
0
  6
CONTINUOUS
 62
     7
 10
26.3417465601
 20
192.6399273128
 30
0.0
 11
26.3417465601
 21
199.2998008635
 31
0.0
  0
LINE
  5
70
  8
0
  6
CONTINUOUS
 62
     7
 10
30.3338028197
 20
192.6399273128
 30
0.0
 11
26.3417465601
 21
192.6399273128
 31
0.0
  0
ARC
  5
71
  8
0
  6
CONTINUOUS
 62
     7
 10
27.1847488868
 20
195.1596938406
 30
0.0
 40
4.03308368712244
 50
321.3343856818
 51
0.9026779728
  0
ARC
  5
72
  8
0
  6
CONTINUOUS
 62
     7
 10
17.7517465601
 20
200.5698008635
 30
0.0
 40
6.050000000000002
 50
0.0
 51
180.0
  0
ENDSEC
  0
EOF
