  0
SECTION
  2
HEADER
  9
$ACADVER
  1
AC1009
  9
$DWGCODEPAGE
  3
ansi_1252
  9
$INSBASE
 10
0.0
 20
0.0
 30
0.0
  9
$EXTMIN
 10
0.0
 20
0.0
 30
0.0
  9
$EXTMAX
 10
17.0
 20
11.0
 30
0.0
  9
$LIMMIN
 10
0.0
 20
0.0
  9
$LIMMAX
 10
17.0
 20
11.0
  9
$ORTHOMODE
 70
     0
  9
$REGENMODE
 70
     1
  9
$FILLMODE
 70
     1
  9
$QTEXTMODE
 70
     0
  9
$MIRRTEXT
 70
     1
  9
$DRAGMODE
 70
     2
  9
$LTSCALE
 40
1.0
  9
$OSMODE
 70
    37
  9
$ATTMODE
 70
     1
  9
$TEXTSIZE
 40
0.1377952756
  9
$TRACEWID
 40
0.05
  9
$TEXTSTYLE
  7
STANDARD
  9
$CLAYER
  8
0
  9
$CELTYPE
  6
BYLAYER
  9
$CECOLOR
 62
   256
  9
$DIMSCALE
 40
1.0
  9
$DIMASZ
 40
0.13
  9
$DIMEXO
 40
0.0393700787
  9
$DIMDLI
 40
0.38
  9
$DIMRND
 40
0.0
  9
$DIMDLE
 40
0.0
  9
$DIMEXE
 40
0.0393700787
  9
$DIMTP
 40
0.0
  9
$DIMTM
 40
0.0
  9
$DIMTXT
 40
0.1377952756
  9
$DIMCEN
 40
0.09
  9
$DIMTSZ
 40
0.0
  9
$DIMTOL
 70
     0
  9
$DIMLIM
 70
     0
  9
$DIMTIH
 70
     1
  9
$DIMTOH
 70
     1
  9
$DIMSE1
 70
     0
  9
$DIMSE2
 70
     0
  9
$DIMTAD
 70
     1
  9
$DIMZIN
 70
     0
  9
$DIMBLK
  1

  9
$DIMASO
 70
     1
  9
$DIMSHO
 70
     1
  9
$DIMPOST
  1

  9
$DIMAPOST
  1

  9
$DIMALT
 70
     0
  9
$DIMALTD
 70
     2
  9
$DIMALTF
 40
25.4
  9
$DIMLFAC
 40
1.0
  9
$DIMTOFL
 70
     0
  9
$DIMTVP
 40
0.0
  9
$DIMTIX
 70
     0
  9
$DIMSOXD
 70
     0
  9
$DIMSAH
 70
     0
  9
$DIMBLK1
  1

  9
$DIMBLK2
  1

  9
$DIMSTYLE
  2
STANDARD
  9
$DIMCLRD
 70
     0
  9
$DIMCLRE
 70
     0
  9
$DIMCLRT
 70
     0
  9
$DIMTFAC
 40
1.0
  9
$DIMGAP
 40
0.06
  9
$LUNITS
 70
     2
  9
$LUPREC
 70
     2
  9
$SKETCHINC
 40
0.1
  9
$FILLETRAD
 40
0.5
  9
$AUNITS
 70
     0
  9
$AUPREC
 70
     2
  9
$MENU
  1
.
  9
$ELEVATION
 40
0.0
  9
$PELEVATION
 40
0.0
  9
$THICKNESS
 40
0.0
  9
$LIMCHECK
 70
     0
  9
$CHAMFERA
 40
0.5
  9
$CHAMFERB
 40
0.5
  9
$SKPOLY
 70
     0
  9
$TDCREATE
 40
2456583.898341713
  9
$TDUPDATE
 40
2456583.898347928
  9
$TDINDWG
 40
0.0000000116
  9
$TDUSRTIMER
 40
0.0000000116
  9
$USRTIMER
 70
     1
  9
$ANGBASE
 50
0.0
  9
$ANGDIR
 70
     0
  9
$PDMODE
 70
     0
  9
$PDSIZE
 40
-1.0
  9
$PLINEWID
 40
0.0
  9
$COORDS
 70
     1
  9
$SPLFRAME
 70
     0
  9
$SPLINETYPE
 70
     6
  9
$SPLINESEGS
 70
     8
  9
$ATTDIA
 70
     0
  9
$ATTREQ
 70
     1
  9
$HANDLING
 70
     1
  9
$HANDSEED
  5
158
  9
$SURFTAB1
 70
     6
  9
$SURFTAB2
 70
     6
  9
$SURFTYPE
 70
     6
  9
$SURFU
 70
     6
  9
$SURFV
 70
     6
  9
$UCSNAME
  2

  9
$UCSORG
 10
0.0
 20
0.0
 30
0.0
  9
$UCSXDIR
 10
1.0
 20
0.0
 30
0.0
  9
$UCSYDIR
 10
0.0
 20
1.0
 30
0.0
  9
$PUCSNAME
  2

  9
$PUCSORG
 10
0.0
 20
0.0
 30
0.0
  9
$PUCSXDIR
 10
1.0
 20
0.0
 30
0.0
  9
$PUCSYDIR
 10
0.0
 20
1.0
 30
0.0
  9
$USERI1
 70
     0
  9
$USERI2
 70
     0
  9
$USERI3
 70
     0
  9
$USERI4
 70
     0
  9
$USERI5
 70
     0
  9
$USERR1
 40
0.0
  9
$USERR2
 40
0.0
  9
$USERR3
 40
0.0
  9
$USERR4
 40
0.0
  9
$USERR5
 40
0.0
  9
$WORLDVIEW
 70
     1
  9
$SHADEDGE
 70
     3
  9
$SHADEDIF
 70
    70
  9
$TILEMODE
 70
     1
  9
$MAXACTVP
 70
    64
  9
$PLIMCHECK
 70
     0
  9
$PEXTMIN
 10
1.0000000000E+20
 20
1.0000000000E+20
 30
1.0000000000E+20
  9
$PEXTMAX
 10
-1.0000000000E+20
 20
-1.0000000000E+20
 30
-1.0000000000E+20
  9
$PLIMMIN
 10
0.0
 20
0.0
  9
$PLIMMAX
 10
12.0
 20
9.0
  9
$UNITMODE
 70
     0
  9
$VISRETAIN
 70
     1
  9
$PLINEGEN
 70
     0
  9
$PSLTSCALE
 70
     1
  0
ENDSEC
  0
SECTION
  2
TABLES
  0
TABLE
  2
VPORT
 70
     1
  0
VPORT
  2
*ACTIVE
 70
     0
 10
0.0
 20
0.0
 11
1.0
 21
1.0
 12
8.5
 22
5.5
 13
0.0
 23
0.0
 14
0.5
 24
0.5
 15
0.5
 25
0.5
 16
0.0
 26
0.0
 36
1.0
 17
0.0
 27
0.0
 37
0.0
 40
11.0
 41
1.5454545455
 42
50.0
 43
0.0
 44
0.0
 50
0.0
 51
0.0
 71
     0
 72
  2000
 73
     1
 74
     3
 75
     0
 76
     0
 77
     0
 78
     0
  0
ENDTAB
  0
TABLE
  2
LTYPE
 70
     6
  0
LTYPE
  2
CONTINUOUS
 70
     0
  3
Solid line
 72
    65
 73
     0
 40
0.0
  0
LTYPE
  2
HIDDEN
 70
     0
  3
Hidden __ __ __ __ __ __ __ __ __ __ __ __ __ __
 72
    65
 73
     2
 40
0.075
 49
0.05
 49
-0.025
  0
LTYPE
  2
PHANTOM
 70
     0
  3
Phantom ______  __  __  ______  __  __  ______
 72
    65
 73
     6
 40
0.5
 49
0.25
 49
-0.05
 49
0.05
 49
-0.05
 49
0.05
 49
-0.05
  0
LTYPE
  2
CENTER
 70
     0
  3
Center ____ _ ____ _ ____ _ ____ _ ____ _ ____
 72
    65
 73
     4
 40
0.4
 49
0.25
 49
-0.05
 49
0.05
 49
-0.05
  0
LTYPE
  2
CENTERX2
 70
     0
  3
Center (2x) ________  __  ________  __  _____
 72
    65
 73
     4
 40
0.8
 49
0.5
 49
-0.1
 49
0.1
 49
-0.1
  0
LTYPE
  2
DOT2
 70
     0
  3
Dot (.5x) ........................................
 72
    65
 73
     2
 40
0.025
 49
0.0
 49
-0.025
  0
ENDTAB
  0
TABLE
  2
LAYER
 70
     2
  0
LAYER
  2
0
 70
     0
 62
     7
  6
CONTINUOUS
  0
LAYER
  2
FORMAT
 70
     0
 62
     7
  6
CONTINUOUS
  0
ENDTAB
  0
TABLE
  2
STYLE
 70
     1
  0
STYLE
  2
STANDARD
 70
     0
 40
0.0
 41
1.0
 50
0.0
 71
     0
 42
0.1377952756
  3
txt
  4

  0
ENDTAB
  0
TABLE
  2
VIEW
 70
     0
  0
ENDTAB
  0
TABLE
  2
UCS
 70
     0
  0
ENDTAB
  0
TABLE
  2
APPID
 70
     1
  0
APPID
  2
ACAD
 70
     0
  0
ENDTAB
  0
TABLE
  2
DIMSTYLE
 70
     1
  0
DIMSTYLE
  2
STANDARD
 70
     0
  3

  4

  5

  6

  7

 40
1.0
 41
0.18
 42
0.0625
 43
0.38
 44
0.18
 45
0.0
 46
0.0
 47
0.0
 48
0.0
140
0.18
141
0.09
142
0.0
143
25.4
144
1.0
145
0.0
146
1.0
147
0.09
 71
     0
 72
     0
 73
     1
 74
     1
 75
     0
 76
     0
 77
     0
 78
     0
170
     0
171
     2
172
     0
173
     0
174
     0
175
     0
176
     0
177
     0
178
     0
  0
ENDTAB
  0
ENDSEC
  0
SECTION
  2
BLOCKS
  0
BLOCK
  8
0
  2
$MODEL_SPACE
 70
     0
 10
0.0
 20
0.0
 30
0.0
  3
$MODEL_SPACE
  1

  0
ENDBLK
  5
21
  8
0
  0
BLOCK
 67
     1
  8
0
  2
$PAPER_SPACE
 70
     0
 10
0.0
 20
0.0
 30
0.0
  3
$PAPER_SPACE
  1

  0
ENDBLK
  5
1D
 67
     1
  8
0
  0
ENDSEC
  0
SECTION
  2
ENTITIES
  0
CIRCLE
  5
45
  8
0
  6
CONTINUOUS
 62
     7
 10
12.008275171
 20
6.430648702
 30
0.0
 40
0.0787401574803148
  0
CIRCLE
  5
46
  8
0
  6
CONTINUOUS
 62
     7
 10
13.2287476119
 20
5.210176261
 30
0.0
 40
0.0787401574803148
  0
ARC
  5
47
  8
0
  6
CONTINUOUS
 62
     7
 10
10.0185112981
 20
6.7204124815
 30
0.0
 40
0.1000000000000005
 50
47.8458686793
 51
90.0
  0
ARC
  5
48
  8
0
  6
CONTINUOUS
 62
     7
 10
10.2177357061
 20
6.940480179
 30
0.0
 40
0.1968503937007951
 50
227.8458686793
 51
266.9675367052
  0
LINE
  5
49
  8
0
  6
CONTINUOUS
 62
     7
 10
12.6185113915
 20
6.6161703957
 30
0.0
 11
10.2073219733
 21
6.7439054307
 31
0.0
  0
LINE
  5
4A
  8
0
  6
CONTINUOUS
 62
     7
 10
15.0297008096
 20
6.7439054307
 30
0.0
 11
12.6185113915
 21
6.6161703957
 31
0.0
  0
ARC
  5
4B
  8
0
  6
CONTINUOUS
 62
     7
 10
15.0192870768
 20
6.940480179
 30
0.0
 40
0.1968503937007953
 50
273.0324632948
 51
312.1541313207
  0
ARC
  5
4C
  8
0
  6
CONTINUOUS
 62
     7
 10
15.2185114848
 20
6.7204124815
 30
0.0
 40
0.1000000000000005
 50
90.0
 51
132.1541313207
  0
LINE
  5
4D
  8
0
  6
CONTINUOUS
 62
     7
 10
16.1435113915
 20
6.8204124815
 30
0.0
 11
15.2185114848
 21
6.8204124815
 31
0.0
  0
ARC
  5
4E
  8
0
  6
CONTINUOUS
 62
     7
 10
16.1435113915
 20
6.7204124815
 30
0.0
 40
0.1000000000000005
 50
0.0
 51
90.0
  0
LINE
  5
4F
  8
0
  6
CONTINUOUS
 62
     7
 10
16.2435113915
 20
4.9204124815
 30
0.0
 11
16.2435113915
 21
6.7204124815
 31
0.0
  0
ARC
  5
50
  8
0
  6
CONTINUOUS
 62
     7
 10
16.1435113915
 20
4.9204124815
 30
0.0
 40
0.1000000000000005
 50
270.0
 51
0.0
  0
ARC
  5
51
  8
0
  6
CONTINUOUS
 62
     7
 10
15.2185114848
 20
4.9204124815
 30
0.0
 40
0.1000000000000005
 50
227.8458686793
 51
270.0
  0
ARC
  5
52
  8
0
  6
CONTINUOUS
 62
     7
 10
15.0192870768
 20
4.7003447839
 30
0.0
 40
0.1968503937007945
 50
47.8458686793
 51
86.9675367052
  0
LINE
  5
53
  8
0
  6
CONTINUOUS
 62
     7
 10
12.6185113915
 20
5.0246545673
 30
0.0
 11
15.0297008096
 21
4.8969195322
 31
0.0
  0
LINE
  5
54
  8
0
  6
CONTINUOUS
 62
     7
 10
10.2073219733
 20
4.8969195322
 30
0.0
 11
12.6185113915
 21
5.0246545673
 31
0.0
  0
ARC
  5
55
  8
0
  6
CONTINUOUS
 62
     7
 10
10.2177357061
 20
4.7003447839
 30
0.0
 40
0.1968503937007945
 50
93.0324632948
 51
132.1541313207
  0
ARC
  5
56
  8
0
  6
CONTINUOUS
 62
     7
 10
10.0185112981
 20
4.9204124815
 30
0.0
 40
0.1000000000000005
 50
270.0
 51
312.1541313207
  0
LINE
  5
57
  8
0
  6
CONTINUOUS
 62
     7
 10
9.0935113915
 20
4.8204124815
 30
0.0
 11
10.0185112981
 21
4.8204124815
 31
0.0
  0
ARC
  5
58
  8
0
  6
CONTINUOUS
 62
     7
 10
9.0935113915
 20
4.9204124815
 30
0.0
 40
0.1000000000000005
 50
180.0
 51
270.0
  0
LINE
  5
59
  8
0
  6
CONTINUOUS
 62
     7
 10
8.9935113915
 20
6.7204124815
 30
0.0
 11
8.9935113915
 21
4.9204124815
 31
0.0
  0
ARC
  5
5A
  8
0
  6
CONTINUOUS
 62
     7
 10
9.0935113915
 20
6.7204124815
 30
0.0
 40
0.1000000000000005
 50
90.0
 51
180.0
  0
CIRCLE
  5
5B
  8
0
  6
CONTINUOUS
 62
     7
 10
13.2287476119
 20
6.430648702
 30
0.0
 40
0.0787401574803148
  0
CIRCLE
  5
5C
  8
0
  6
CONTINUOUS
 62
     7
 10
12.008275171
 20
5.210176261
 30
0.0
 40
0.0787401574803148
  0
CIRCLE
  5
5D
  8
0
  6
CONTINUOUS
 62
     7
 10
12.6185113915
 20
5.8204124815
 30
0.0
 40
0.4337431859521086
  0
CIRCLE
  5
5E
  8
0
  6
CONTINUOUS
 62
     7
 10
15.664771234
 20
5.0723809854
 30
0.0
 40
0.0944881889763778
  0
CIRCLE
  5
5F
  8
0
  6
CONTINUOUS
 62
     7
 10
15.664771234
 20
6.5684439775
 30
0.0
 40
0.0944881889763796
  0
CIRCLE
  5
60
  8
0
  6
CONTINUOUS
 62
     7
 10
15.664771234
 20
5.8204124815
 30
0.0
 40
0.0944881889763796
  0
CIRCLE
  5
61
  8
0
  6
CONTINUOUS
 62
     7
 10
9.5722515489
 20
5.8204124815
 30
0.0
 40
0.0944881889763778
  0
CIRCLE
  5
62
  8
0
  6
CONTINUOUS
 62
     7
 10
9.5722515489
 20
6.5684439775
 30
0.0
 40
0.0944881889763778
  0
CIRCLE
  5
63
  8
0
  6
CONTINUOUS
 62
     7
 10
9.5722515489
 20
5.0723809854
 30
0.0
 40
0.094488188976376
  0
ARC
  5
64
  8
0
  6
CONTINUOUS
 62
     7
 10
14.8740786464
 20
5.4453078598
 30
0.0
 40
0.0984251968503926
 50
259.6583272121
 51
0.0
  0
LINE
  5
65
  8
0
  6
CONTINUOUS
 62
     7
 10
14.9725038432
 20
6.1955171032
 30
0.0
 11
14.9725038432
 21
5.4453078598
 31
0.0
  0
ARC
  5
66
  8
0
  6
CONTINUOUS
 62
     7
 10
14.8740786464
 20
6.1955171032
 30
0.0
 40
0.0984251968503926
 50
0.0
 51
100.3416727879
  0
LINE
  5
67
  8
0
  6
CONTINUOUS
 62
     7
 10
13.6385062675
 20
6.0700976233
 30
0.0
 11
14.8564095741
 21
6.2923433561
 31
0.0
  0
ARC
  5
68
  8
0
  6
CONTINUOUS
 62
     7
 10
13.6561753398
 20
5.9732713704
 30
0.0
 40
0.0984251968503932
 50
100.3416727879
 51
180.0
  0
LINE
  5
69
  8
0
  6
CONTINUOUS
 62
     7
 10
13.5577501429
 20
5.6675535926
 30
0.0
 11
13.5577501429
 21
5.9732713704
 31
0.0
  0
ARC
  5
6A
  8
0
  6
CONTINUOUS
 62
     7
 10
13.6561753398
 20
5.6675535926
 30
0.0
 40
0.0984251968503926
 50
180.0
 51
259.6583272121
  0
LINE
  5
6B
  8
0
  6
CONTINUOUS
 62
     7
 10
14.8564095741
 20
5.3484816068
 30
0.0
 11
13.6385062675
 21
5.5707273397
 31
0.0
  0
ARC
  5
6C
  8
0
  6
CONTINUOUS
 62
     7
 10
10.3629441365
 20
5.4453078598
 30
0.0
 40
0.0984251968503922
 50
180.0
 51
280.3416727879
  0
LINE
  5
6D
  8
0
  6
CONTINUOUS
 62
     7
 10
11.5985165154
 20
5.5707273397
 30
0.0
 11
10.3806132088
 21
5.3484816068
 31
0.0
  0
ARC
  5
6E
  8
0
  6
CONTINUOUS
 62
     7
 10
11.5808474432
 20
5.6675535926
 30
0.0
 40
0.098425196850391
 50
280.3416727879
 51
0.0
  0
LINE
  5
6F
  8
0
  6
CONTINUOUS
 62
     7
 10
11.67927264
 20
5.9732713704
 30
0.0
 11
11.67927264
 21
5.6675535926
 31
0.0
  0
ARC
  5
70
  8
0
  6
CONTINUOUS
 62
     7
 10
11.5808474432
 20
5.9732713704
 30
0.0
 40
0.098425196850392
 50
0.0
 51
79.6583272121
  0
LINE
  5
71
  8
0
  6
CONTINUOUS
 62
     7
 10
10.3806132088
 20
6.2923433561
 30
0.0
 11
11.5985165154
 21
6.0700976233
 31
0.0
  0
ARC
  5
72
  8
0
  6
CONTINUOUS
 62
     7
 10
10.3629441365
 20
6.1955171032
 30
0.0
 40
0.0984251968503923
 50
79.6583272121
 51
180.0
  0
LINE
  5
73
  8
0
  6
CONTINUOUS
 62
     7
 10
10.2645189397
 20
5.4453078598
 30
0.0
 11
10.2645189397
 21
6.1955171032
 31
0.0
  0
LINE
  5
74
  8
0
  6
CONTINUOUS
 62
     7
 10
10.0185112981
 20
6.8204124815
 30
0.0
 11
9.0935113915
 21
6.8204124815
 31
0.0
  0
LINE
  5
75
  8
0
  6
CONTINUOUS
 62
     7
 10
15.2185114848
 20
4.8204124815
 30
0.0
 11
16.1435113915
 21
4.8204124815
 31
0.0
  0
CIRCLE
  5
76
  8
0
  6
CONTINUOUS
 62
     7
 10
11.8471681533
 20
3.6992990327
 30
0.0
 40
0.7086614173228352
  0
CIRCLE
  5
77
  8
0
  6
CONTINUOUS
 62
     7
 10
11.2173728315
 20
3.06925186
 30
0.0
 40
0.0629921259842519
  0
CIRCLE
  5
78
  8
0
  6
CONTINUOUS
 62
     7
 10
12.4769634752
 20
4.3293462054
 30
0.0
 40
0.0629921259842501
  0
CIRCLE
  5
79
  8
0
  6
CONTINUOUS
 62
     7
 10
11.2171209807
 20
4.3290943545
 30
0.0
 40
0.0629921259842501
  0
CIRCLE
  5
7A
  8
0
  6
CONTINUOUS
 62
     7
 10
12.477215326
 20
3.0695037109
 30
0.0
 40
0.0629921259842519
  0
CIRCLE
  5
7B
  8
0
  6
CONTINUOUS
 62
     7
 10
14.8934279959
 20
2.9512675366
 30
0.0
 40
0.094488188976376
  0
CIRCLE
  5
7C
  8
0
  6
CONTINUOUS
 62
     7
 10
14.8934279959
 20
4.4473305288
 30
0.0
 40
0.0944881889763778
  0
CIRCLE
  5
7D
  8
0
  6
CONTINUOUS
 62
     7
 10
14.8934279959
 20
3.6992990327
 30
0.0
 40
0.0944881889763778
  0
CIRCLE
  5
7E
  8
0
  6
CONTINUOUS
 62
     7
 10
8.8009083108
 20
3.6992990327
 30
0.0
 40
0.094488188976376
  0
CIRCLE
  5
7F
  8
0
  6
CONTINUOUS
 62
     7
 10
8.8009083108
 20
4.4473305288
 30
0.0
 40
0.094488188976376
  0
CIRCLE
  5
80
  8
0
  6
CONTINUOUS
 62
     7
 10
8.8009083108
 20
2.9512675366
 30
0.0
 40
0.094488188976376
  0
ARC
  5
81
  8
0
  6
CONTINUOUS
 62
     7
 10
14.1027354083
 20
3.324194411
 30
0.0
 40
0.0984251968503871
 50
259.6583272121
 51
0.0
  0
LINE
  5
82
  8
0
  6
CONTINUOUS
 62
     7
 10
14.2011606051
 20
4.0744036544
 30
0.0
 11
14.2011606051
 21
3.324194411
 31
0.0
  0
ARC
  5
83
  8
0
  6
CONTINUOUS
 62
     7
 10
14.1027354083
 20
4.0744036544
 30
0.0
 40
0.0984251968503882
 50
0.0
 51
100.3416727879
  0
LINE
  5
84
  8
0
  6
CONTINUOUS
 62
     7
 10
12.960249873
 20
3.965970871
 30
0.0
 11
14.085066336
 21
4.1712299073
 31
0.0
  0
ARC
  5
85
  8
0
  6
CONTINUOUS
 62
     7
 10
12.9779189453
 20
3.869144618
 30
0.0
 40
0.0984251968503891
 50
100.3416727879
 51
180.0
  0
LINE
  5
86
  8
0
  6
CONTINUOUS
 62
     7
 10
12.8794937484
 20
3.5294534474
 30
0.0
 11
12.8794937484
 21
3.869144618
 31
0.0
  0
ARC
  5
87
  8
0
  6
CONTINUOUS
 62
     7
 10
12.9779189453
 20
3.5294534474
 30
0.0
 40
0.0984251968503891
 50
180.0
 51
259.6583272121
  0
LINE
  5
88
  8
0
  6
CONTINUOUS
 62
     7
 10
14.085066336
 20
3.227368158
 30
0.0
 11
12.960249873
 21
3.4326271944
 31
0.0
  0
ARC
  5
89
  8
0
  6
CONTINUOUS
 62
     7
 10
9.5916008984
 20
3.324194411
 30
0.0
 40
0.098425196850388
 50
180.0
 51
280.3416727879
  0
LINE
  5
8A
  8
0
  6
CONTINUOUS
 62
     7
 10
10.7340864337
 20
3.4326271944
 30
0.0
 11
9.6092699707
 21
3.227368158
 31
0.0
  0
ARC
  5
8B
  8
0
  6
CONTINUOUS
 62
     7
 10
10.7164173614
 20
3.5294534474
 30
0.0
 40
0.0984251968503873
 50
280.3416727879
 51
0.0
  0
LINE
  5
8C
  8
0
  6
CONTINUOUS
 62
     7
 10
10.8148425583
 20
3.869144618
 30
0.0
 11
10.8148425583
 21
3.5294534474
 31
0.0
  0
ARC
  5
8D
  8
0
  6
CONTINUOUS
 62
     7
 10
10.7164173614
 20
3.869144618
 30
0.0
 40
0.0984251968503873
 50
0.0
 51
79.6583272121
  0
LINE
  5
8E
  8
0
  6
CONTINUOUS
 62
     7
 10
9.6092699707
 20
4.1712299073
 30
0.0
 11
10.7340864337
 21
3.965970871
 31
0.0
  0
ARC
  5
8F
  8
0
  6
CONTINUOUS
 62
     7
 10
9.5916008984
 20
4.0744036544
 30
0.0
 40
0.0984251968503873
 50
79.6583272121
 51
180.0
  0
LINE
  5
90
  8
0
  6
CONTINUOUS
 62
     7
 10
9.4931757016
 20
3.324194411
 30
0.0
 11
9.4931757016
 21
4.0744036544
 31
0.0
  0
LINE
  5
91
  8
0
  6
CONTINUOUS
 62
     7
 10
11.8471681533
 20
2.9025754756
 30
0.0
 11
14.2137905611
 21
2.8630877848
 31
0.0
  0
LINE
  5
92
  8
0
  6
CONTINUOUS
 62
     7
 10
9.4805457456
 20
2.8630877848
 30
0.0
 11
11.8471681533
 21
2.9025754756
 31
0.0
  0
ARC
  5
93
  8
0
  6
CONTINUOUS
 62
     7
 10
9.4838297869
 20
2.6662647867
 30
0.0
 40
0.1968503937008202
 50
90.9559058096
 51
153.3747880951
  0
ARC
  5
94
  8
0
  6
CONTINUOUS
 62
     7
 10
9.2184582632
 20
2.7992990327
 30
0.0
 40
0.1000000000000007
 50
270.0
 51
333.3747880951
  0
ARC
  5
95
  8
0
  6
CONTINUOUS
 62
     7
 10
8.3221681533
 20
2.7992990327
 30
0.0
 40
0.1000000000000014
 50
180.0
 51
270.0
  0
LINE
  5
96
  8
0
  6
CONTINUOUS
 62
     7
 10
8.2221681533
 20
4.5992990327
 30
0.0
 11
8.2221681533
 21
2.7992990327
 31
0.0
  0
ARC
  5
97
  8
0
  6
CONTINUOUS
 62
     7
 10
8.3221681533
 20
4.5992990327
 30
0.0
 40
0.1000000000000014
 50
90.0
 51
180.0
  0
LINE
  5
98
  8
0
  6
CONTINUOUS
 62
     7
 10
9.2184582632
 20
4.6992990327
 30
0.0
 11
8.3221681533
 21
4.6992990327
 31
0.0
  0
ARC
  5
99
  8
0
  6
CONTINUOUS
 62
     7
 10
9.2184582632
 20
4.5992990327
 30
0.0
 40
0.1000000000000014
 50
26.6252119049
 51
90.0
  0
ARC
  5
9A
  8
0
  6
CONTINUOUS
 62
     7
 10
9.4838297869
 20
4.7323332787
 30
0.0
 40
0.1968503937008193
 50
206.6252119049
 51
269.0440941904
  0
LINE
  5
9B
  8
0
  6
CONTINUOUS
 62
     7
 10
11.8471681533
 20
4.4960225898
 30
0.0
 11
9.4805457456
 21
4.5355102806
 31
0.0
  0
LINE
  5
9C
  8
0
  6
CONTINUOUS
 62
     7
 10
14.2137905611
 20
4.5355102806
 30
0.0
 11
11.8471681533
 21
4.4960225898
 31
0.0
  0
ARC
  5
9D
  8
0
  6
CONTINUOUS
 62
     7
 10
14.2105065198
 20
4.7323332787
 30
0.0
 40
0.1968503937008201
 50
270.9559058096
 51
333.3747880951
  0
ARC
  5
9E
  8
0
  6
CONTINUOUS
 62
     7
 10
14.4758780435
 20
4.5992990327
 30
0.0
 40
0.1000000000000017
 50
90.0
 51
153.3747880951
  0
ARC
  5
9F
  8
0
  6
CONTINUOUS
 62
     7
 10
15.3721681533
 20
4.5992990327
 30
0.0
 40
0.1000000000000014
 50
0.0
 51
90.0
  0
LINE
  5
A0
  8
0
  6
CONTINUOUS
 62
     7
 10
15.4721681533
 20
2.7992990327
 30
0.0
 11
15.4721681533
 21
4.5992990327
 31
0.0
  0
ARC
  5
A1
  8
0
  6
CONTINUOUS
 62
     7
 10
15.3721681533
 20
2.7992990327
 30
0.0
 40
0.1000000000000005
 50
270.0
 51
0.0
  0
LINE
  5
A2
  8
0
  6
CONTINUOUS
 62
     7
 10
14.4758780435
 20
2.6992990327
 30
0.0
 11
15.3721681533
 21
2.6992990327
 31
0.0
  0
ARC
  5
A3
  8
0
  6
CONTINUOUS
 62
     7
 10
14.4758780435
 20
2.7992990327
 30
0.0
 40
0.1000000000000005
 50
206.6252119049
 51
270.0
  0
ARC
  5
A4
  8
0
  6
CONTINUOUS
 62
     7
 10
14.2105065198
 20
2.6662647867
 30
0.0
 40
0.1968503937008201
 50
26.6252119049
 51
89.0440941904
  0
LINE
  5
A5
  8
0
  6
CONTINUOUS
 62
     7
 10
15.3721681533
 20
4.6992990327
 30
0.0
 11
14.4758780435
 21
4.6992990327
 31
0.0
  0
LINE
  5
A6
  8
0
  6
CONTINUOUS
 62
     7
 10
8.3221681533
 20
2.6992990327
 30
0.0
 11
9.2184582632
 21
2.6992990327
 31
0.0
  0
CIRCLE
  5
A7
  8
0
  6
CONTINUOUS
 62
     7
 10
14.3425434424
 20
7.640208933
 30
0.0
 40
0.094488188976376
  0
CIRCLE
  5
A8
  8
0
  6
CONTINUOUS
 62
     7
 10
14.3425434424
 20
9.1362719251
 30
0.0
 40
0.0944881889763778
  0
CIRCLE
  5
A9
  8
0
  6
CONTINUOUS
 62
     7
 10
14.3425434424
 20
8.3882404291
 30
0.0
 40
0.0944881889763778
  0
CIRCLE
  5
AA
  8
0
  6
CONTINUOUS
 62
     7
 10
8.2500237574
 20
8.3882404291
 30
0.0
 40
0.094488188976376
  0
CIRCLE
  5
AB
  8
0
  6
CONTINUOUS
 62
     7
 10
8.2500237574
 20
9.1362719251
 30
0.0
 40
0.094488188976376
  0
CIRCLE
  5
AC
  8
0
  6
CONTINUOUS
 62
     7
 10
8.2500237574
 20
7.640208933
 30
0.0
 40
0.094488188976376
  0
CIRCLE
  5
AD
  8
0
  6
CONTINUOUS
 62
     7
 10
11.2962835999
 20
8.3882404291
 30
0.0
 40
0.3248031496062982
  0
ARC
  5
AE
  8
0
  6
CONTINUOUS
 62
     7
 10
13.5518508548
 20
8.0131358074
 30
0.0
 40
0.0984251968503922
 50
259.6583272121
 51
0.0
  0
LINE
  5
AF
  8
0
  6
CONTINUOUS
 62
     7
 10
13.6502760517
 20
8.7633450508
 30
0.0
 11
13.6502760517
 21
8.0131358074
 31
0.0
  0
ARC
  5
B0
  8
0
  6
CONTINUOUS
 62
     7
 10
13.5518508548
 20
8.7633450508
 30
0.0
 40
0.0984251968503909
 50
0.0
 51
100.3416727879
  0
LINE
  5
B1
  8
0
  6
CONTINUOUS
 62
     7
 10
12.0951141154
 20
8.5975670013
 30
0.0
 11
13.5341817826
 21
8.8601713037
 31
0.0
  0
ARC
  5
B2
  8
0
  6
CONTINUOUS
 62
     7
 10
12.1127831877
 20
8.5007407483
 30
0.0
 40
0.0984251968503922
 50
100.3416727879
 51
180.0
  0
LINE
  5
B3
  8
0
  6
CONTINUOUS
 62
     7
 10
12.0143579909
 20
8.2757401098
 30
0.0
 11
12.0143579909
 21
8.5007407483
 31
0.0
  0
ARC
  5
B4
  8
0
  6
CONTINUOUS
 62
     7
 10
12.1127831877
 20
8.2757401098
 30
0.0
 40
0.0984251968503919
 50
180.0
 51
259.6583272121
  0
LINE
  5
B5
  8
0
  6
CONTINUOUS
 62
     7
 10
13.5341817826
 20
7.9163095544
 30
0.0
 11
12.0951141154
 21
8.1789138568
 31
0.0
  0
ARC
  5
B6
  8
0
  6
CONTINUOUS
 62
     7
 10
9.040716345
 20
8.0131358074
 30
0.0
 40
0.0984251968503922
 50
180.0
 51
280.3416727879
  0
LINE
  5
B7
  8
0
  6
CONTINUOUS
 62
     7
 10
10.4974530844
 20
8.1789138568
 30
0.0
 11
9.0583854173
 21
7.9163095544
 31
0.0
  0
ARC
  5
B8
  8
0
  6
CONTINUOUS
 62
     7
 10
10.4797840121
 20
8.2757401098
 30
0.0
 40
0.0984251968503926
 50
280.3416727879
 51
0.0
  0
LINE
  5
B9
  8
0
  6
CONTINUOUS
 62
     7
 10
10.578209209
 20
8.5007407483
 30
0.0
 11
10.578209209
 21
8.2757401098
 31
0.0
  0
ARC
  5
BA
  8
0
  6
CONTINUOUS
 62
     7
 10
10.4797840121
 20
8.5007407483
 30
0.0
 40
0.0984251968503919
 50
0.0
 51
79.6583272121
  0
LINE
  5
BB
  8
0
  6
CONTINUOUS
 62
     7
 10
9.0583854173
 20
8.8601713037
 30
0.0
 11
10.4974530844
 21
8.5975670013
 31
0.0
  0
ARC
  5
BC
  8
0
  6
CONTINUOUS
 62
     7
 10
9.040716345
 20
8.7633450508
 30
0.0
 40
0.0984251968503909
 50
79.6583272121
 51
180.0
  0
LINE
  5
BD
  8
0
  6
CONTINUOUS
 62
     7
 10
8.9422911481
 20
8.0131358074
 30
0.0
 11
8.9422911481
 21
8.7633450508
 31
0.0
  0
LINE
  5
BE
  8
0
  6
CONTINUOUS
 62
     7
 10
11.2962835999
 20
9.098948169
 30
0.0
 11
8.9225315007
 21
9.2246999268
 31
0.0
  0
LINE
  5
BF
  8
0
  6
CONTINUOUS
 62
     7
 10
13.6700356992
 20
9.2246999268
 30
0.0
 11
11.2962835999
 21
9.098948169
 31
0.0
  0
ARC
  5
C0
  8
0
  6
CONTINUOUS
 62
     7
 10
13.6596219663
 20
9.4212746751
 30
0.0
 40
0.1968503937007951
 50
273.0324632948
 51
333.3747880951
  0
ARC
  5
C1
  8
0
  6
CONTINUOUS
 62
     7
 10
13.9249934901
 20
9.2882404291
 30
0.0
 40
0.1000000000000014
 50
90.0
 51
153.3747880951
  0
ARC
  5
C2
  8
0
  6
CONTINUOUS
 62
     7
 10
14.8212835999
 20
9.2882404291
 30
0.0
 40
0.1000000000000014
 50
0.0
 51
90.0
  0
ARC
  5
C3
  8
0
  6
CONTINUOUS
 62
     7
 10
14.8212835999
 20
7.4882404291
 30
0.0
 40
0.1000000000000005
 50
270.0
 51
0.0
  0
ARC
  5
C4
  8
0
  6
CONTINUOUS
 62
     7
 10
13.9249934901
 20
7.4882404291
 30
0.0
 40
0.1000000000000005
 50
206.6252119049
 51
270.0
  0
ARC
  5
C5
  8
0
  6
CONTINUOUS
 62
     7
 10
13.6596219663
 20
7.355206183
 30
0.0
 40
0.1968503937007972
 50
26.6252119049
 51
86.9675367052
  0
LINE
  5
C6
  8
0
  6
CONTINUOUS
 62
     7
 10
11.2962835999
 20
7.6775326891
 30
0.0
 11
13.6700356992
 21
7.5517809313
 31
0.0
  0
LINE
  5
C7
  8
0
  6
CONTINUOUS
 62
     7
 10
8.9225315007
 20
7.5517809313
 30
0.0
 11
11.2962835999
 21
7.6775326891
 31
0.0
  0
ARC
  5
C8
  8
0
  6
CONTINUOUS
 62
     7
 10
8.9329452335
 20
7.355206183
 30
0.0
 40
0.1968503937008013
 50
93.0324632948
 51
153.3747880951
  0
ARC
  5
C9
  8
0
  6
CONTINUOUS
 62
     7
 10
8.6675737097
 20
7.4882404291
 30
0.0
 40
0.1000000000000005
 50
270.0
 51
333.3747880951
  0
ARC
  5
CA
  8
0
  6
CONTINUOUS
 62
     7
 10
7.7712835999
 20
7.4882404291
 30
0.0
 40
0.1000000000000005
 50
180.0
 51
270.0
  0
ARC
  5
CB
  8
0
  6
CONTINUOUS
 62
     7
 10
7.7712835999
 20
9.2882404291
 30
0.0
 40
0.1000000000000014
 50
90.0
 51
180.0
  0
ARC
  5
CC
  8
0
  6
CONTINUOUS
 62
     7
 10
8.6675737097
 20
9.2882404291
 30
0.0
 40
0.1000000000000017
 50
26.6252119049
 51
90.0
  0
ARC
  5
CD
  8
0
  6
CONTINUOUS
 62
     7
 10
8.9329452335
 20
9.4212746751
 30
0.0
 40
0.1968503937007987
 50
206.6252119049
 51
266.9675367052
  0
LINE
  5
CE
  8
0
  6
CONTINUOUS
 62
     7
 10
8.6675737097
 20
9.3882404291
 30
0.0
 11
7.7712835999
 21
9.3882404291
 31
0.0
  0
LINE
  5
CF
  8
0
  6
CONTINUOUS
 62
     7
 10
14.9212835999
 20
7.4882404291
 30
0.0
 11
14.9212835999
 21
9.2882404291
 31
0.0
  0
LINE
  5
D0
  8
0
  6
CONTINUOUS
 62
     7
 10
13.9249934901
 20
7.3882404291
 30
0.0
 11
14.8212835999
 21
7.3882404291
 31
0.0
  0
LINE
  5
D1
  8
0
  6
CONTINUOUS
 62
     7
 10
7.6712835999
 20
9.2882404291
 30
0.0
 11
7.6712835999
 21
7.4882404291
 31
0.0
  0
LINE
  5
D2
  8
0
  6
CONTINUOUS
 62
     7
 10
14.8212835999
 20
9.3882404291
 30
0.0
 11
13.9249934901
 21
9.3882404291
 31
0.0
  0
LINE
  5
D3
  8
0
  6
CONTINUOUS
 62
     7
 10
7.7712835999
 20
7.3882404291
 30
0.0
 11
8.6675737097
 21
7.3882404291
 31
0.0
  0
CIRCLE
  5
D4
  8
0
  6
CONTINUOUS
 62
     7
 10
10.3927067531
 20
1.1054275362
 30
0.0
 40
0.098425196850398
  0
CIRCLE
  5
D5
  8
0
  6
CONTINUOUS
 62
     7
 10
3.4490059631
 20
1.1100724173
 30
0.0
 40
0.098425196850394
  0
ARC
  5
D6
  8
0
  6
CONTINUOUS
 62
     7
 10
9.6431735296
 20
0.9551042083
 30
0.0
 40
0.0837751025080014
 50
265.9814987716
 51
0.0
  0
LINE
  5
D7
  8
0
  6
CONTINUOUS
 62
     7
 10
9.7269486321
 20
1.2557508641
 30
0.0
 11
9.7269486321
 21
0.9551042083
 31
0.0
  0
ARC
  5
D8
  8
0
  6
CONTINUOUS
 62
     7
 10
9.6431735296
 20
1.2557508641
 30
0.0
 40
0.0837751025080014
 50
0.0
 51
92.7279352094
  0
LINE
  5
D9
  8
0
  6
CONTINUOUS
 62
     7
 10
7.7232831951
 20
1.2481431115
 30
0.0
 11
9.6391863822
 21
1.3394310317
 31
0.0
  0
ARC
  5
DA
  8
0
  6
CONTINUOUS
 62
     7
 10
7.7272703426
 20
1.1644629439
 30
0.0
 40
0.083775102508001
 50
92.7279352094
 51
180.0
  0
LINE
  5
DB
  8
0
  6
CONTINUOUS
 62
     7
 10
7.6434952401
 20
1.0896989085
 30
0.0
 11
7.6434952401
 21
1.1644629439
 31
0.0
  0
ARC
  5
DC
  8
0
  6
CONTINUOUS
 62
     7
 10
7.7272703426
 20
1.0896989085
 30
0.0
 40
0.0837751025080009
 50
180.0
 51
265.9814987716
  0
LINE
  5
DD
  8
0
  6
CONTINUOUS
 62
     7
 10
9.6373026885
 20
0.8715350691
 30
0.0
 11
7.7213995014
 21
1.0061297693
 31
0.0
  0
ARC
  5
DE
  8
0
  6
CONTINUOUS
 62
     7
 10
4.2076681686
 20
0.9551042083
 30
0.0
 40
0.0837751025080008
 50
180.0
 51
274.0185012284
  0
LINE
  5
DF
  8
0
  6
CONTINUOUS
 62
     7
 10
6.1294421968
 20
1.0061297693
 30
0.0
 11
4.2135390098
 21
0.8715350691
 31
0.0
  0
ARC
  5
E0
  8
0
  6
CONTINUOUS
 62
     7
 10
6.1235713557
 20
1.0896989085
 30
0.0
 40
0.0837751025080014
 50
274.0185012284
 51
0.0
  0
LINE
  5
E1
  8
0
  6
CONTINUOUS
 62
     7
 10
6.2073464582
 20
1.1644629439
 30
0.0
 11
6.2073464582
 21
1.0896989085
 31
0.0
  0
ARC
  5
E2
  8
0
  6
CONTINUOUS
 62
     7
 10
6.1235713557
 20
1.1644629439
 30
0.0
 40
0.0837751025080014
 50
0.0
 51
87.2720647906
  0
LINE
  5
E3
  8
0
  6
CONTINUOUS
 62
     7
 10
4.2116553161
 20
1.3394310317
 30
0.0
 11
6.1275585031
 21
1.2481431115
 31
0.0
  0
ARC
  5
E4
  8
0
  6
CONTINUOUS
 62
     7
 10
4.2076681686
 20
1.2557508641
 30
0.0
 40
0.0837751025080013
 50
87.2720647906
 51
180.0
  0
LINE
  5
E5
  8
0
  6
CONTINUOUS
 62
     7
 10
4.1238930661
 20
0.9551042083
 30
0.0
 11
4.1238930661
 21
1.2557508641
 31
0.0
  0
ARC
  5
E6
  8
0
  6
CONTINUOUS
 62
     7
 10
4.0222735753
 20
1.5054275362
 30
0.0
 40
0.1000000000000002
 50
45.6975261509
 51
90.0
  0
ARC
  5
E7
  8
0
  6
CONTINUOUS
 62
     7
 10
4.1734620022
 20
1.6603426914
 30
0.0
 40
0.1164639594556018
 50
225.6975261509
 51
267.8594424386
  0
LINE
  5
E8
  8
0
  6
CONTINUOUS
 62
     7
 10
6.9254208491
 20
1.4409369772
 30
0.0
 11
4.1691119467
 21
1.5439599999
 31
0.0
  0
LINE
  5
E9
  8
0
  6
CONTINUOUS
 62
     7
 10
9.6817297515
 20
1.5439599999
 30
0.0
 11
6.9254208491
 21
1.4409369772
 31
0.0
  0
ARC
  5
EA
  8
0
  6
CONTINUOUS
 62
     7
 10
9.677379696
 20
1.6603426914
 30
0.0
 40
0.116463959455601
 50
272.1405575614
 51
314.3024738491
  0
ARC
  5
EB
  8
0
  6
CONTINUOUS
 62
     7
 10
9.8285681229
 20
1.5054275362
 30
0.0
 40
0.1000000000000001
 50
90.0
 51
134.3024738491
  0
ARC
  5
EC
  8
0
  6
CONTINUOUS
 62
     7
 10
10.8254208491
 20
1.5054275362
 30
0.0
 40
0.1000000000000001
 50
0.0
 51
90.0
  0
ARC
  5
ED
  8
0
  6
CONTINUOUS
 62
     7
 10
10.8254208491
 20
0.7054275362
 30
0.0
 40
0.1000000000000001
 50
270.0
 51
0.0
  0
ARC
  5
EE
  8
0
  6
CONTINUOUS
 62
     7
 10
9.8285681229
 20
0.7054275362
 30
0.0
 40
0.1000000000000001
 50
225.6975261509
 51
270.0
  0
ARC
  5
EF
  8
0
  6
CONTINUOUS
 62
     7
 10
9.677379696
 20
0.550512381
 30
0.0
 40
0.1164639594556023
 50
45.6975261509
 51
87.8594424386
  0
LINE
  5
F0
  8
0
  6
CONTINUOUS
 62
     7
 10
6.9254208491
 20
0.7699180951
 30
0.0
 11
9.6817297515
 21
0.6668950724
 31
0.0
  0
LINE
  5
F1
  8
0
  6
CONTINUOUS
 62
     7
 10
4.1691119467
 20
0.6668950724
 30
0.0
 11
6.9254208491
 21
0.7699180951
 31
0.0
  0
ARC
  5
F2
  8
0
  6
CONTINUOUS
 62
     7
 10
4.1734620022
 20
0.550512381
 30
0.0
 40
0.1164639594556017
 50
92.1405575614
 51
134.3024738491
  0
ARC
  5
F3
  8
0
  6
CONTINUOUS
 62
     7
 10
4.0222735753
 20
0.7054275362
 30
0.0
 40
0.1000000000000001
 50
270.0
 51
314.3024738491
  0
ARC
  5
F4
  8
0
  6
CONTINUOUS
 62
     7
 10
3.0254208491
 20
0.7054275362
 30
0.0
 40
0.1000000000000001
 50
180.0
 51
270.0
  0
ARC
  5
F5
  8
0
  6
CONTINUOUS
 62
     7
 10
3.0254208491
 20
1.5054275362
 30
0.0
 40
0.1000000000000001
 50
90.0
 51
180.0
  0
LINE
  5
F6
  8
0
  6
CONTINUOUS
 62
     7
 10
4.0222735753
 20
1.6054275362
 30
0.0
 11
3.0254208491
 21
1.6054275362
 31
0.0
  0
LINE
  5
F7
  8
0
  6
CONTINUOUS
 62
     7
 10
10.9254208491
 20
0.7054275362
 30
0.0
 11
10.9254208491
 21
1.5054275362
 31
0.0
  0
LINE
  5
F8
  8
0
  6
CONTINUOUS
 62
     7
 10
9.8285681229
 20
0.6054275362
 30
0.0
 11
10.8254208491
 21
0.6054275362
 31
0.0
  0
LINE
  5
F9
  8
0
  6
CONTINUOUS
 62
     7
 10
2.9254208491
 20
1.5054275362
 30
0.0
 11
2.9254208491
 21
0.7054275362
 31
0.0
  0
LINE
  5
FA
  8
0
  6
CONTINUOUS
 62
     7
 10
10.8254208491
 20
1.6054275362
 30
0.0
 11
9.8285681229
 21
1.6054275362
 31
0.0
  0
LINE
  5
FB
  8
0
  6
CONTINUOUS
 62
     7
 10
3.0254208491
 20
0.6054275362
 30
0.0
 11
4.0222735753
 21
0.6054275362
 31
0.0
  0
CIRCLE
  5
FC
  8
0
  6
CONTINUOUS
 62
     7
 10
11.3197978089
 20
10.0141522193
 30
0.0
 40
0.098425196850398
  0
CIRCLE
  5
FD
  8
0
  6
CONTINUOUS
 62
     7
 10
4.3760970189
 20
10.0187971005
 30
0.0
 40
0.0984251968503944
  0
ARC
  5
FE
  8
0
  6
CONTINUOUS
 62
     7
 10
10.5702645854
 20
9.8638288914
 30
0.0
 40
0.0837751025080014
 50
265.9814987716
 51
0.0
  0
LINE
  5
FF
  8
0
  6
CONTINUOUS
 62
     7
 10
10.6540396879
 20
10.1644755472
 30
0.0
 11
10.6540396879
 21
9.8638288914
 31
0.0
  0
ARC
  5
100
  8
0
  6
CONTINUOUS
 62
     7
 10
10.5702645854
 20
10.1644755472
 30
0.0
 40
0.0837751025080014
 50
0.0
 51
92.7279352094
  0
LINE
  5
101
  8
0
  6
CONTINUOUS
 62
     7
 10
8.6503742509
 20
10.1568677947
 30
0.0
 11
10.566277438
 21
10.2481557148
 31
0.0
  0
ARC
  5
102
  8
0
  6
CONTINUOUS
 62
     7
 10
8.6543613984
 20
10.073187627
 30
0.0
 40
0.0837751025080014
 50
92.7279352094
 51
180.0
  0
LINE
  5
103
  8
0
  6
CONTINUOUS
 62
     7
 10
8.5705862958
 20
9.9984235917
 30
0.0
 11
8.5705862958
 21
10.073187627
 31
0.0
  0
ARC
  5
104
  8
0
  6
CONTINUOUS
 62
     7
 10
8.6543613984
 20
9.9984235917
 30
0.0
 40
0.0837751025080023
 50
180.0
 51
265.9814987716
  0
LINE
  5
105
  8
0
  6
CONTINUOUS
 62
     7
 10
10.5643937442
 20
9.7802597522
 30
0.0
 11
8.6484905572
 21
9.9148544525
 31
0.0
  0
ARC
  5
106
  8
0
  6
CONTINUOUS
 62
     7
 10
5.1347592244
 20
9.8638288914
 30
0.0
 40
0.0837751025080014
 50
180.0
 51
274.0185012284
  0
LINE
  5
107
  8
0
  6
CONTINUOUS
 62
     7
 10
7.0565332526
 20
9.9148544525
 30
0.0
 11
5.1406300656
 21
9.7802597522
 31
0.0
  0
ARC
  5
108
  8
0
  6
CONTINUOUS
 62
     7
 10
7.0506624115
 20
9.9984235917
 30
0.0
 40
0.0837751025080023
 50
274.0185012284
 51
0.0
  0
LINE
  5
109
  8
0
  6
CONTINUOUS
 62
     7
 10
7.134437514
 20
10.073187627
 30
0.0
 11
7.134437514
 21
9.9984235917
 31
0.0
  0
ARC
  5
10A
  8
0
  6
CONTINUOUS
 62
     7
 10
7.0506624115
 20
10.073187627
 30
0.0
 40
0.0837751025080008
 50
0.0
 51
87.2720647906
  0
LINE
  5
10B
  8
0
  6
CONTINUOUS
 62
     7
 10
5.1387463719
 20
10.2481557148
 30
0.0
 11
7.0546495589
 21
10.1568677947
 31
0.0
  0
ARC
  5
10C
  8
0
  6
CONTINUOUS
 62
     7
 10
5.1347592244
 20
10.1644755472
 30
0.0
 40
0.0837751025080014
 50
87.2720647906
 51
180.0
  0
LINE
  5
10D
  8
0
  6
CONTINUOUS
 62
     7
 10
5.0509841219
 20
9.8638288914
 30
0.0
 11
5.0509841219
 21
10.1644755472
 31
0.0
  0
ARC
  5
10E
  8
0
  6
CONTINUOUS
 62
     7
 10
4.9493646311
 20
10.4141522193
 30
0.0
 40
0.0999999999999999
 50
45.6975261509
 51
90.0
  0
ARC
  5
10F
  8
0
  6
CONTINUOUS
 62
     7
 10
5.100553058
 20
10.5690673745
 30
0.0
 40
0.1164639594556016
 50
225.6975261509
 51
267.8594424386
  0
LINE
  5
110
  8
0
  6
CONTINUOUS
 62
     7
 10
7.8525119049
 20
10.3496616604
 30
0.0
 11
5.0962030025
 21
10.4526846831
 31
0.0
  0
LINE
  5
111
  8
0
  6
CONTINUOUS
 62
     7
 10
10.6088208073
 20
10.4526846831
 30
0.0
 11
7.8525119049
 21
10.3496616604
 31
0.0
  0
ARC
  5
112
  8
0
  6
CONTINUOUS
 62
     7
 10
10.6044707518
 20
10.5690673745
 30
0.0
 40
0.1164639594556015
 50
272.1405575614
 51
314.3024738491
  0
ARC
  5
113
  8
0
  6
CONTINUOUS
 62
     7
 10
10.7556591787
 20
10.4141522193
 30
0.0
 40
0.0999999999999999
 50
90.0
 51
134.3024738491
  0
ARC
  5
114
  8
0
  6
CONTINUOUS
 62
     7
 10
11.7525119049
 20
10.4141522193
 30
0.0
 40
0.0999999999999996
 50
0.0
 51
90.0
  0
ARC
  5
115
  8
0
  6
CONTINUOUS
 62
     7
 10
11.7525119049
 20
9.6141522193
 30
0.0
 40
0.0999999999999996
 50
270.0
 51
0.0
  0
ARC
  5
116
  8
0
  6
CONTINUOUS
 62
     7
 10
10.7556591787
 20
9.6141522193
 30
0.0
 40
0.0999999999999996
 50
225.6975261509
 51
270.0
  0
ARC
  5
117
  8
0
  6
CONTINUOUS
 62
     7
 10
10.6044707518
 20
9.4592370641
 30
0.0
 40
0.1164639594556017
 50
45.6975261509
 51
87.8594424386
  0
LINE
  5
118
  8
0
  6
CONTINUOUS
 62
     7
 10
7.8525119049
 20
9.6786427783
 30
0.0
 11
10.6088208073
 21
9.5756197556
 31
0.0
  0
LINE
  5
119
  8
0
  6
CONTINUOUS
 62
     7
 10
5.0962030025
 20
9.5756197556
 30
0.0
 11
7.8525119049
 21
9.6786427783
 31
0.0
  0
ARC
  5
11A
  8
0
  6
CONTINUOUS
 62
     7
 10
5.100553058
 20
9.4592370641
 30
0.0
 40
0.1164639594556029
 50
92.1405575614
 51
134.3024738491
  0
ARC
  5
11B
  8
0
  6
CONTINUOUS
 62
     7
 10
4.9493646311
 20
9.6141522193
 30
0.0
 40
0.0999999999999996
 50
270.0
 51
314.3024738491
  0
ARC
  5
11C
  8
0
  6
CONTINUOUS
 62
     7
 10
3.9525119049
 20
9.6141522193
 30
0.0
 40
0.1000000000000001
 50
180.0
 51
270.0
  0
ARC
  5
11D
  8
0
  6
CONTINUOUS
 62
     7
 10
3.9525119049
 20
10.4141522193
 30
0.0
 40
0.1000000000000001
 50
90.0
 51
180.0
  0
LINE
  5
11E
  8
0
  6
CONTINUOUS
 62
     7
 10
4.9493646311
 20
10.5141522193
 30
0.0
 11
3.9525119049
 21
10.5141522193
 31
0.0
  0
LINE
  5
11F
  8
0
  6
CONTINUOUS
 62
     7
 10
11.8525119049
 20
9.6141522193
 30
0.0
 11
11.8525119049
 21
10.4141522193
 31
0.0
  0
LINE
  5
120
  8
0
  6
CONTINUOUS
 62
     7
 10
10.7556591787
 20
9.5141522193
 30
0.0
 11
11.7525119049
 21
9.5141522193
 31
0.0
  0
LINE
  5
121
  8
0
  6
CONTINUOUS
 62
     7
 10
3.8525119049
 20
10.4141522193
 30
0.0
 11
3.8525119049
 21
9.6141522193
 31
0.0
  0
LINE
  5
122
  8
0
  6
CONTINUOUS
 62
     7
 10
11.7525119049
 20
10.5141522193
 30
0.0
 11
10.7556591787
 21
10.5141522193
 31
0.0
  0
LINE
  5
123
  8
0
  6
CONTINUOUS
 62
     7
 10
3.9525119049
 20
9.5141522193
 30
0.0
 11
4.9493646311
 21
9.5141522193
 31
0.0
  0
CIRCLE
  5
124
  8
0
  6
CONTINUOUS
 62
     7
 10
12.1539542928
 20
2.1746907956
 30
0.0
 40
0.0984251968503997
  0
CIRCLE
  5
125
  8
0
  6
CONTINUOUS
 62
     7
 10
5.2102535028
 20
2.1793356768
 30
0.0
 40
0.0984251968503935
  0
ARC
  5
126
  8
0
  6
CONTINUOUS
 62
     7
 10
11.4044210693
 20
2.0243674677
 30
0.0
 40
0.0837751025080011
 50
265.9814987716
 51
0.0
  0
LINE
  5
127
  8
0
  6
CONTINUOUS
 62
     7
 10
11.4881961718
 20
2.3250141235
 30
0.0
 11
11.4881961718
 21
2.0243674677
 31
0.0
  0
ARC
  5
128
  8
0
  6
CONTINUOUS
 62
     7
 10
11.4044210693
 20
2.3250141235
 30
0.0
 40
0.0837751025080008
 50
0.0
 51
92.7279352094
  0
LINE
  5
129
  8
0
  6
CONTINUOUS
 62
     7
 10
9.4845307348
 20
2.3174063709
 30
0.0
 11
11.4004339219
 21
2.4086942911
 31
0.0
  0
ARC
  5
12A
  8
0
  6
CONTINUOUS
 62
     7
 10
9.4885178823
 20
2.2337262033
 30
0.0
 40
0.0837751025080014
 50
92.7279352094
 51
180.0
  0
LINE
  5
12B
  8
0
  6
CONTINUOUS
 62
     7
 10
9.4047427798
 20
2.1589621679
 30
0.0
 11
9.4047427798
 21
2.2337262033
 31
0.0
  0
ARC
  5
12C
  8
0
  6
CONTINUOUS
 62
     7
 10
9.4885178823
 20
2.1589621679
 30
0.0
 40
0.0837751025080014
 50
180.0
 51
265.9814987716
  0
LINE
  5
12D
  8
0
  6
CONTINUOUS
 62
     7
 10
11.3985502282
 20
1.9407983285
 30
0.0
 11
9.4826470411
 21
2.0753930288
 31
0.0
  0
ARC
  5
12E
  8
0
  6
CONTINUOUS
 62
     7
 10
5.9689157084
 20
2.0243674677
 30
0.0
 40
0.0837751025080009
 50
180.0
 51
274.0185012284
  0
LINE
  5
12F
  8
0
  6
CONTINUOUS
 62
     7
 10
7.8906897365
 20
2.0753930288
 30
0.0
 11
5.9747865495
 21
1.9407983285
 31
0.0
  0
ARC
  5
130
  8
0
  6
CONTINUOUS
 62
     7
 10
7.8848188954
 20
2.1589621679
 30
0.0
 40
0.0837751025080009
 50
274.0185012284
 51
0.0
  0
LINE
  5
131
  8
0
  6
CONTINUOUS
 62
     7
 10
7.9685939979
 20
2.2337262033
 30
0.0
 11
7.9685939979
 21
2.1589621679
 31
0.0
  0
ARC
  5
132
  8
0
  6
CONTINUOUS
 62
     7
 10
7.8848188954
 20
2.2337262033
 30
0.0
 40
0.0837751025080013
 50
0.0
 51
87.2720647906
  0
LINE
  5
133
  8
0
  6
CONTINUOUS
 62
     7
 10
5.9729028558
 20
2.4086942911
 30
0.0
 11
7.8888060428
 21
2.3174063709
 31
0.0
  0
ARC
  5
134
  8
0
  6
CONTINUOUS
 62
     7
 10
5.9689157084
 20
2.3250141235
 30
0.0
 40
0.0837751025080008
 50
87.2720647906
 51
180.0
  0
LINE
  5
135
  8
0
  6
CONTINUOUS
 62
     7
 10
5.8851406058
 20
2.0243674677
 30
0.0
 11
5.8851406058
 21
2.3250141235
 31
0.0
  0
ARC
  5
136
  8
0
  6
CONTINUOUS
 62
     7
 10
5.783521115
 20
2.5746907956
 30
0.0
 40
0.1000000000000002
 50
45.6975261509
 51
90.0
  0
ARC
  5
137
  8
0
  6
CONTINUOUS
 62
     7
 10
5.9347095419
 20
2.7296059508
 30
0.0
 40
0.1164639594556016
 50
225.6975261509
 51
267.8594424386
  0
LINE
  5
138
  8
0
  6
CONTINUOUS
 62
     7
 10
8.6866683888
 20
2.5102002366
 30
0.0
 11
5.9303594864
 21
2.6132232593
 31
0.0
  0
LINE
  5
139
  8
0
  6
CONTINUOUS
 62
     7
 10
11.4429772912
 20
2.6132232593
 30
0.0
 11
8.6866683888
 21
2.5102002366
 31
0.0
  0
ARC
  5
13A
  8
0
  6
CONTINUOUS
 62
     7
 10
11.4386272357
 20
2.7296059508
 30
0.0
 40
0.116463959455602
 50
272.1405575614
 51
314.3024738491
  0
ARC
  5
13B
  8
0
  6
CONTINUOUS
 62
     7
 10
11.5898156626
 20
2.5746907956
 30
0.0
 40
0.1000000000000011
 50
90.0
 51
134.3024738491
  0
ARC
  5
13C
  8
0
  6
CONTINUOUS
 62
     7
 10
12.5866683888
 20
2.5746907956
 30
0.0
 40
0.0999999999999996
 50
0.0
 51
90.0
  0
ARC
  5
13D
  8
0
  6
CONTINUOUS
 62
     7
 10
12.5866683888
 20
1.7746907956
 30
0.0
 40
0.1000000000000001
 50
270.0
 51
0.0
  0
ARC
  5
13E
  8
0
  6
CONTINUOUS
 62
     7
 10
11.5898156626
 20
1.7746907956
 30
0.0
 40
0.1000000000000001
 50
225.6975261509
 51
270.0
  0
ARC
  5
13F
  8
0
  6
CONTINUOUS
 62
     7
 10
11.4386272357
 20
1.6197756404
 30
0.0
 40
0.1164639594556026
 50
45.6975261509
 51
87.8594424386
  0
LINE
  5
140
  8
0
  6
CONTINUOUS
 62
     7
 10
8.6866683888
 20
1.8391813546
 30
0.0
 11
11.4429772912
 21
1.7361583318
 31
0.0
  0
LINE
  5
141
  8
0
  6
CONTINUOUS
 62
     7
 10
5.9303594864
 20
1.7361583318
 30
0.0
 11
8.6866683888
 21
1.8391813546
 31
0.0
  0
ARC
  5
142
  8
0
  6
CONTINUOUS
 62
     7
 10
5.9347095419
 20
1.6197756404
 30
0.0
 40
0.1164639594556018
 50
92.1405575614
 51
134.3024738491
  0
ARC
  5
143
  8
0
  6
CONTINUOUS
 62
     7
 10
5.783521115
 20
1.7746907956
 30
0.0
 40
0.1000000000000006
 50
270.0
 51
314.3024738491
  0
ARC
  5
144
  8
0
  6
CONTINUOUS
 62
     7
 10
4.7866683888
 20
1.7746907956
 30
0.0
 40
0.1000000000000005
 50
180.0
 51
270.0
  0
ARC
  5
145
  8
0
  6
CONTINUOUS
 62
     7
 10
4.7866683888
 20
2.5746907956
 30
0.0
 40
0.1000000000000005
 50
90.0
 51
180.0
  0
LINE
  5
146
  8
0
  6
CONTINUOUS
 62
     7
 10
5.783521115
 20
2.6746907956
 30
0.0
 11
4.7866683888
 21
2.6746907956
 31
0.0
  0
LINE
  5
147
  8
0
  6
CONTINUOUS
 62
     7
 10
12.6866683888
 20
1.7746907956
 30
0.0
 11
12.6866683888
 21
2.5746907956
 31
0.0
  0
LINE
  5
148
  8
0
  6
CONTINUOUS
 62
     7
 10
11.5898156626
 20
1.6746907956
 30
0.0
 11
12.5866683888
 21
1.6746907956
 31
0.0
  0
LINE
  5
149
  8
0
  6
CONTINUOUS
 62
     7
 10
4.6866683888
 20
2.5746907956
 30
0.0
 11
4.6866683888
 21
1.7746907956
 31
0.0
  0
LINE
  5
14A
  8
0
  6
CONTINUOUS
 62
     7
 10
12.5866683888
 20
2.6746907956
 30
0.0
 11
11.5898156626
 21
2.6746907956
 31
0.0
  0
LINE
  5
14B
  8
0
  6
CONTINUOUS
 62
     7
 10
4.7866683888
 20
1.6746907956
 30
0.0
 11
5.783521115
 21
1.6746907956
 31
0.0
  0
CIRCLE
  5
14C
  8
0
  6
CONTINUOUS
 62
     7
 10
0.4775117988
 20
9.6459259788
 30
0.0
 40
0.0787401574803024
  0
CIRCLE
  5
14D
  8
0
  6
CONTINUOUS
 62
     7
 10
0.4775117988
 20
2.0069155815
 30
0.0
 40
0.0787401574803024
  0
CIRCLE
  5
14E
  8
0
  6
CONTINUOUS
 62
     7
 10
8.2448376363
 20
5.1614583156
 30
0.0
 40
0.0787401574803024
  0
LINE
  5
14F
  8
0
  6
CONTINUOUS
 62
     7
 10
8.8353888174
 20
6.4918409692
 30
0.0
 11
1.334381383
 21
10.8225496306
 31
0.0
  0
LINE
  5
150
  8
0
  6
CONTINUOUS
 62
     7
 10
8.8353888174
 20
5.161000591
 30
0.0
 11
8.8353888174
 21
6.4918409692
 31
0.0
  0
LINE
  5
151
  8
0
  6
CONTINUOUS
 62
     7
 10
1.334381383
 20
0.8302919296
 30
0.0
 11
8.8353888174
 21
5.161000591
 31
0.0
  0
LINE
  5
152
  8
0
  6
CONTINUOUS
 62
     7
 10
0.1818398071
 20
1.4957121187
 30
0.0
 11
1.334381383
 21
0.8302919296
 31
0.0
  0
LINE
  5
153
  8
0
  6
CONTINUOUS
 62
     7
 10
0.1818398071
 20
10.1571294415
 30
0.0
 11
0.1818398071
 21
1.4957121187
 31
0.0
  0
LINE
  5
154
  8
0
  6
CONTINUOUS
 62
     7
 10
1.334381383
 20
10.8225496306
 30
0.0
 11
0.1818398071
 21
10.1571294415
 31
0.0
  0
CIRCLE
  5
155
  8
0
  6
CONTINUOUS
 62
     7
 10
1.6292605724
 20
10.3108884433
 30
0.0
 40
0.0787401574803024
  0
CIRCLE
  5
156
  8
0
  6
CONTINUOUS
 62
     7
 10
8.2448376363
 20
6.4913832446
 30
0.0
 40
0.0787401574803024
  0
CIRCLE
  5
157
  8
0
  6
CONTINUOUS
 62
     7
 10
1.6292605724
 20
1.341953117
 30
0.0
 40
0.0787401574803026
  0
ENDSEC
  0
EOF
